<svg width="204" height="51" viewBox="0 0 204 51" fill="none" xmlns="http://www.w3.org/2000/svg">
<path d="M67.2394 40.9123H47.7433C47.374 40.8138 47.054 40.703 46.7832 40.5799C45.7493 39.9645 45.1216 39.2014 44.9001 38.2906C44.7032 37.3552 44.6047 36.5552 44.6047 35.8905C44.6047 35.7675 44.6047 35.6567 44.6047 35.5582C44.6293 35.4597 44.6416 33.232 44.6416 28.8749C44.6416 27.1518 44.2724 25.6871 43.5339 24.4809C43.1154 23.8409 42.5615 23.5085 41.8723 23.4839L36.4075 23.4101C36.4321 25.084 36.4444 26.8564 36.4444 28.7272L36.3705 40.8015H33.4166C31.1027 40.8015 29.4657 40.5184 28.5056 39.9522C27.5456 39.3614 26.9794 38.7214 26.8071 38.0321C26.6348 37.3183 26.5487 36.6783 26.5487 36.1121V28.8749C26.5487 27.1271 26.1917 25.6625 25.4778 24.4809C25.0594 23.8409 24.5055 23.5085 23.8162 23.4839L19.0899 23.4101C19.1145 25.084 19.1268 26.8564 19.1268 28.7272L19.053 40.8753H0C0.0738488 37.626 0.689256 35.2259 1.84622 33.6751C2.58471 32.715 3.75398 32.235 5.35404 32.235H5.87098C6.56024 32.235 7.21257 32.1612 7.82798 32.0135C8.56646 31.7919 9.04648 31.1642 9.26803 30.1303V15.5821H9.48957V15.5083L27.4718 15.5821C29.6626 15.5821 31.4596 15.8406 32.8627 16.3575C34.4382 16.9483 35.4967 18.2776 36.0382 20.3454C36.0382 19.8776 36.0259 19.4715 36.0013 19.1268C35.9767 18.7576 35.9644 18.4499 35.9644 18.2037C35.9644 17.3422 36.1121 16.7145 36.4075 16.3206C36.7521 15.8283 37.7737 15.5821 39.4722 15.5821H44.6785C49.971 15.5821 53.0727 17.9576 53.9835 22.7085C54.2789 24.4317 54.4266 26.2902 54.4266 28.2841L54.3897 29.5765C54.3897 30.5119 54.402 31.3981 54.4266 32.235L62.4023 32.2719C63.9777 32.2966 65.1839 32.752 66.0208 33.6381C66.8578 34.4997 67.2763 35.6444 67.2763 37.0721L67.2394 40.9123Z" fill="#212121"/>
<path d="M83.9425 50.808H73.9729C68.385 49.8726 65.3818 46.5617 64.9633 40.8753H53.3321C53.3814 39.6937 53.5291 38.4383 53.7752 37.109C53.9968 35.7798 54.4768 34.6474 55.2153 33.712C55.9292 32.752 57.0123 32.2596 58.4646 32.235L60.5693 32.2719C61.2832 32.2719 61.9601 32.2473 62.6002 32.1981C63.7325 32.1981 64.5079 31.6073 64.9264 30.4257L64.8895 23.8901C65.3818 21.2808 66.5265 19.2622 68.3235 17.8345C70.2681 16.3083 72.4959 15.5452 75.0068 15.5452C77.0745 15.5452 79.0685 16.1606 80.9885 17.3914C82.9086 18.6222 84.324 20.6531 85.2348 23.4839C85.7025 24.8624 85.9364 26.4502 85.9364 28.2472C85.9364 30.0688 85.6902 32.0996 85.1979 34.3397C84.484 37.1952 82.8471 39.0906 80.287 40.0261C78.81 40.5922 77.1115 40.8753 75.1914 40.8753L73.456 40.7276C73.6775 41.5154 73.9852 42.0815 74.3791 42.4262C74.7729 42.7462 75.376 42.9185 76.1884 42.9431H88.3365C88.1888 45.1093 87.918 46.7955 87.5242 48.0017C86.8595 49.8726 85.6656 50.808 83.9425 50.808ZM74.3421 32.2719C75.4499 32.2719 76.3114 32.0012 76.9268 31.4596C77.5669 30.918 77.8869 29.8965 77.8869 28.3949C77.8869 28.2472 77.8992 28.0626 77.9238 27.841C77.9484 27.6195 77.9607 27.3856 77.9607 27.1394C77.9607 26.5733 77.8746 25.8963 77.7023 25.1086C77.5546 24.2963 76.9515 23.7547 75.893 23.4839L75.2652 23.447C74.3544 23.447 73.776 23.8286 73.5298 24.5917L73.419 25.404C73.419 26.4871 73.4313 27.5333 73.456 28.5426C73.4806 29.6995 73.4929 30.9304 73.4929 32.235L74.3421 32.2719Z" fill="#212121"/>
<path d="M116.745 12.3328C115.538 12.3328 114.505 11.902 113.643 11.0404C112.781 10.1788 112.351 9.14495 112.351 7.93875C112.351 6.73255 112.781 5.69867 113.643 4.8371C114.505 3.97553 115.538 3.54474 116.745 3.54474C117.951 3.54474 118.985 3.97553 119.846 4.8371C120.708 5.69867 121.139 6.73255 121.139 7.93875C121.139 9.14495 120.708 10.1788 119.846 11.0404C118.985 11.902 117.951 12.3328 116.745 12.3328ZM88.239 40.9492L88.2759 40.8753H85.4328C85.482 39.6937 85.6297 38.4383 85.8758 37.109C86.0974 35.7798 86.5774 34.6474 87.3159 33.712C88.0298 32.752 89.1252 32.2596 90.6022 32.235L92.6699 32.2719C93.3838 32.2719 94.0608 32.2473 94.7008 32.1981C96.3008 32.075 97.1009 31.1027 97.1009 29.2811L96.9901 6.31408C96.9901 4.73863 97.3347 3.55705 98.024 2.76933C98.7132 1.98161 99.7102 1.44005 101.015 1.14466C102.344 0.849262 103.969 0.689256 105.889 0.664639L105.815 19.6807C109.04 16.8991 112.621 15.5083 116.56 15.5083H117.779C118.591 15.5329 119.612 15.6929 120.843 15.9883C122.074 16.2837 123.342 16.8252 124.646 17.6129C125.976 18.3761 127.17 19.4961 128.228 20.9731C129.287 22.45 130.05 24.3947 130.517 26.8071L130.739 27.9518C130.837 28.4933 130.887 29.1457 130.887 29.9088C130.887 30.2042 130.862 30.7334 130.813 31.4965C130.788 32.2596 130.542 33.2935 130.074 34.5982C129.631 35.9028 128.844 37.109 127.711 38.2168C126.579 39.3245 124.991 40.1984 122.948 40.8384L88.239 40.9492ZM105.926 32.235L120.732 32.1981C121.274 32.1981 121.619 32.0996 121.766 31.9027C121.914 31.7058 121.988 31.1519 121.988 30.2411C121.988 25.8594 120.105 23.6686 116.338 23.6686C114.886 23.6686 113.458 24.1732 112.055 25.1825C110.012 26.6348 108.24 28.5672 106.738 30.9796L105.926 32.235Z" fill="#212121"/>
<path d="M151.873 40.8753C144.34 40.8753 140.439 40.8384 140.168 40.7646C135.417 40.1491 132.685 37.5891 131.971 33.0843V11.0404L132.008 5.64944C132.008 4.09861 132.328 2.92934 132.968 2.14162C133.632 1.3539 134.605 0.812337 135.885 0.516942C137.165 0.19693 138.74 0.0246163 140.611 0V11.0404L140.648 16.8745L140.685 29.8719C140.833 30.7827 141.165 31.3981 141.682 31.7181C142.199 32.0381 142.667 32.1981 143.085 32.1981C143.676 32.2473 144.254 32.2719 144.82 32.2719L146.741 32.235C150.039 32.2842 151.75 35.1644 151.873 40.8753Z" fill="#212121"/>
<path d="M162.151 40.8753H152.44C152.416 37.9214 152.403 34.4874 152.403 30.5734L152.329 15.4344H155.246C159.21 15.4344 161.437 16.4683 161.93 18.5361C162.077 19.1515 162.151 19.7299 162.151 20.2715L162.114 21.3054L162.151 40.8753Z" fill="#212121"/>
<path d="M176.454 40.9861C173.328 40.9861 170.78 40.5553 168.811 39.6937C166.645 38.7337 165.094 37.0106 164.159 34.5243C163.519 32.875 163.199 31.1519 163.199 29.3549C163.199 28.4195 163.359 26.9917 163.679 25.0717C163.999 23.1516 165.205 21.1454 167.297 19.053C169.414 16.936 172.454 15.779 176.417 15.5821L192.48 15.656L192.295 29.8719C192.443 30.8073 192.775 31.4473 193.292 31.7919C193.809 32.1119 194.289 32.2719 194.732 32.2719C195.446 32.2966 196.824 32.3089 198.867 32.3089C201.428 32.3581 203.003 33.9705 203.594 37.146C203.815 38.4999 203.951 39.7676 204 40.9492H192.701C191.815 40.9492 191.04 40.6784 190.375 40.1368C189.735 39.5953 189.218 38.9306 188.824 38.1429C188.455 37.3552 188.233 36.5552 188.159 35.7428C187.889 37.5398 186.584 38.8691 184.245 39.7307C181.907 40.5676 179.31 40.9861 176.454 40.9861ZM177.008 32.235C177.624 32.235 178.522 32.1735 179.704 32.0504C180.91 31.9027 181.808 31.2873 182.399 30.2042C182.99 28.5795 183.285 26.3394 183.285 23.4839H176.381C174.411 23.5578 173.008 24.1978 172.171 25.404C171.531 26.2902 171.211 27.201 171.211 28.1364C171.211 28.481 171.31 29.0841 171.507 29.9457C171.728 30.7827 172.59 31.435 174.091 31.9027C175.002 32.1242 175.974 32.235 177.008 32.235Z" fill="#212121"/>
</svg>
