<svg width="160" height="40" viewBox="0 0 160 40" fill="none" xmlns="http://www.w3.org/2000/svg">
<path d="M52.7368 32.088H37.4457C37.1561 32.0108 36.9051 31.9239 36.6927 31.8274C35.8818 31.3447 35.3895 30.7462 35.2158 30.0319C35.0613 29.2982 34.9841 28.6707 34.9841 28.1494C34.9841 28.0529 34.9841 27.966 34.9841 27.8888C35.0034 27.8116 35.013 26.0643 35.013 22.647C35.013 21.2955 34.7234 20.1467 34.1442 19.2007C33.816 18.6987 33.3816 18.4381 32.841 18.4188L28.5549 18.3608C28.5742 19.6737 28.5838 21.0638 28.5838 22.5311L28.5259 32.0012H26.2091C24.3942 32.0012 23.1103 31.7791 22.3574 31.3351C21.6044 30.8717 21.1603 30.3697 21.0252 29.8291C20.89 29.2692 20.8225 28.7673 20.8225 28.3232V22.647C20.8225 21.2762 20.5425 20.1274 19.9826 19.2007C19.6544 18.6987 19.22 18.4381 18.6794 18.4188L14.9725 18.3608C14.9918 19.6737 15.0014 21.0638 15.0014 22.5311L14.9435 32.0591H0C0.0579206 29.5106 0.540593 27.6281 1.44802 26.4118C2.02722 25.6588 2.9443 25.2824 4.19925 25.2824H4.60469C5.14528 25.2824 5.65692 25.2244 6.13959 25.1086C6.7188 24.9348 7.09528 24.4425 7.26904 23.6316V12.2213H7.4428V12.1633L21.5465 12.2213C23.2648 12.2213 24.6742 12.424 25.7747 12.8294C27.0103 13.2928 27.8405 14.3354 28.2653 15.9571C28.2653 15.5903 28.2556 15.2717 28.2363 15.0014C28.217 14.7118 28.2074 14.4705 28.2074 14.2774C28.2074 13.6017 28.3232 13.1094 28.5549 12.8005C28.8252 12.4143 29.6264 12.2213 30.9586 12.2213H35.042C39.193 12.2213 41.6256 14.0844 42.34 17.8106C42.5717 19.1621 42.6875 20.6198 42.6875 22.1836L42.6586 23.1972C42.6586 23.9309 42.6682 24.6259 42.6875 25.2824L48.9429 25.3113C50.1786 25.3306 51.1246 25.6878 51.7811 26.3829C52.4375 27.0586 52.7657 27.9564 52.7657 29.0762L52.7368 32.088Z" fill="#404040"/>
<path d="M65.8372 39.8494H58.018C53.6353 39.1157 51.2799 36.519 50.9516 32.0591H41.8291C41.8677 31.1323 41.9836 30.1477 42.1767 29.1051C42.3504 28.0626 42.7269 27.1744 43.3061 26.4408C43.866 25.6878 44.7155 25.3017 45.8546 25.2824L47.5054 25.3113C48.0653 25.3113 48.5962 25.292 49.0982 25.2534C49.9863 25.2534 50.5945 24.79 50.9227 23.8633L50.8937 18.7373C51.2799 16.6908 52.1776 15.1076 53.587 13.9878C55.1123 12.7908 56.8595 12.1923 58.8288 12.1923C60.4506 12.1923 62.0145 12.675 63.5204 13.6403C65.0264 14.6057 66.1365 16.1985 66.8509 18.4188C67.2177 19.5 67.4011 20.7452 67.4011 22.1546C67.4011 23.5834 67.208 25.1762 66.8219 26.9331C66.262 29.1727 64.9781 30.6593 62.9702 31.393C61.8118 31.837 60.4796 32.0591 58.9736 32.0591L57.6125 31.9432C57.7863 32.5611 58.0276 33.0051 58.3365 33.2754C58.6454 33.5264 59.1184 33.6615 59.7556 33.6809H69.2835C69.1677 35.3799 68.9553 36.7024 68.6464 37.6484C68.1251 39.1157 67.1887 39.8494 65.8372 39.8494ZM58.3076 25.3113C59.1764 25.3113 59.8521 25.0989 60.3348 24.6742C60.8368 24.2494 61.0877 23.4482 61.0877 22.2705C61.0877 22.1546 61.0974 22.0098 61.1167 21.8361C61.136 21.6623 61.1457 21.4789 61.1457 21.2858C61.1457 20.8418 61.0781 20.3108 60.9429 19.693C60.8271 19.0559 60.3541 18.6311 59.5239 18.4188L59.0316 18.3898C58.3172 18.3898 57.8635 18.6891 57.6704 19.2876L57.5835 19.9247C57.5835 20.7742 57.5932 21.5947 57.6125 22.3863C57.6318 23.2938 57.6415 24.2591 57.6415 25.2824L58.3076 25.3113Z" fill="#404040"/>
<path d="M91.5644 9.67275C90.6184 9.67275 89.8075 9.33488 89.1318 8.65914C88.456 7.9834 88.1182 7.17251 88.1182 6.22647C88.1182 5.28043 88.456 4.46954 89.1318 3.7938C89.8075 3.11806 90.6184 2.78019 91.5644 2.78019C92.5105 2.78019 93.3214 3.11806 93.9971 3.7938C94.6728 4.46954 95.0107 5.28043 95.0107 6.22647C95.0107 7.17251 94.6728 7.9834 93.9971 8.65914C93.3214 9.33488 92.5105 9.67275 91.5644 9.67275ZM69.2071 32.117L69.236 32.0591H67.0061C67.0447 31.1323 67.1605 30.1477 67.3536 29.1051C67.5274 28.0626 67.9039 27.1744 68.4831 26.4408C69.043 25.6878 69.9021 25.3017 71.0605 25.2824L72.6823 25.3113C73.2422 25.3113 73.7731 25.292 74.2751 25.2534C75.5301 25.1569 76.1575 24.3942 76.1575 22.9655L76.0707 4.95222C76.0707 3.71657 76.341 2.78984 76.8816 2.17202C77.4221 1.5542 78.2041 1.12945 79.2273 0.89777C80.2699 0.666087 81.5442 0.540593 83.0501 0.521286L82.9922 15.4359C85.5214 13.2542 88.3305 12.1633 91.4196 12.1633H92.3753C93.0125 12.1826 93.8137 12.3081 94.779 12.5398C95.7444 12.7715 96.7387 13.1963 97.7619 13.8141C98.8045 14.4126 99.7409 15.2911 100.571 16.4495C101.401 17.6079 102 19.1331 102.367 21.0252L102.54 21.923C102.618 22.3477 102.656 22.8593 102.656 23.4579C102.656 23.6895 102.637 24.1046 102.598 24.7032C102.579 25.3017 102.386 26.1126 102.019 27.1358C101.672 28.1591 101.054 29.1051 100.166 29.9739C99.2775 30.8427 98.0322 31.5281 96.4298 32.0301L69.2071 32.117ZM83.0791 25.2824L94.6922 25.2534C95.1169 25.2534 95.3872 25.1762 95.503 25.0217C95.6189 24.8673 95.6768 24.4329 95.6768 23.7185C95.6768 20.2819 94.1998 18.5636 91.2459 18.5636C90.1068 18.5636 88.987 18.9594 87.8865 19.7509C86.284 20.89 84.8939 22.4056 83.7162 24.2977L83.0791 25.2824Z" fill="#404040"/>
<path d="M119.116 32.0591C113.208 32.0591 110.148 32.0301 109.936 31.9722C106.209 31.4895 104.066 29.4816 103.507 25.9485V8.65914L103.535 4.43093C103.535 3.2146 103.786 2.29752 104.288 1.6797C104.81 1.06188 105.572 0.637127 106.576 0.405445C107.58 0.154455 108.816 0.0193069 110.283 0V8.65914L110.312 13.2349L110.341 23.4289C110.457 24.1433 110.718 24.6259 111.123 24.8769C111.529 25.1279 111.895 25.2534 112.224 25.2534C112.687 25.292 113.141 25.3113 113.585 25.3113L115.091 25.2824C117.678 25.321 119.02 27.5799 119.116 32.0591Z" fill="#404040"/>
<path d="M127.178 32.0591H119.561C119.542 29.7423 119.532 27.0489 119.532 23.9791L119.474 12.1054H121.762C124.87 12.1054 126.618 12.9163 127.004 14.5381C127.12 15.0208 127.178 15.4745 127.178 15.8992L127.149 16.7101L127.178 32.0591Z" fill="#404040"/>
<path d="M138.396 32.146C135.944 32.146 133.945 31.8081 132.401 31.1323C130.702 30.3794 129.485 29.0279 128.752 27.0779C128.25 25.7843 127.999 24.4329 127.999 23.0235C127.999 22.2898 128.124 21.17 128.375 19.6641C128.626 18.1581 129.572 16.5846 131.213 14.9435C132.874 13.2831 135.258 12.3757 138.367 12.2213L150.964 12.2792L150.82 23.4289C150.935 24.1626 151.196 24.6645 151.602 24.9348C152.007 25.1858 152.383 25.3113 152.731 25.3113C153.291 25.3306 154.372 25.3403 155.975 25.3403C157.982 25.3789 159.218 26.6435 159.681 29.1341C159.855 30.196 159.961 31.1903 160 32.117H151.138C150.443 32.117 149.835 31.9046 149.314 31.4799C148.812 31.0551 148.406 30.5338 148.097 29.916C147.808 29.2982 147.634 28.6707 147.576 28.0336C147.364 29.443 146.34 30.4856 144.506 31.1613C142.672 31.8177 140.635 32.146 138.396 32.146ZM138.83 25.2824C139.313 25.2824 140.017 25.2341 140.944 25.1376C141.89 25.0217 142.595 24.539 143.058 23.6895C143.522 22.4153 143.753 20.6584 143.753 18.4188H138.338C136.793 18.4767 135.693 18.9787 135.036 19.9247C134.534 20.6198 134.283 21.3341 134.283 22.0678C134.283 22.3381 134.36 22.8111 134.515 23.4868C134.689 24.1433 135.364 24.6549 136.542 25.0217C137.256 25.1955 138.019 25.2824 138.83 25.2824Z" fill="#404040"/>
<path d="M122.898 9.78514C121.952 9.78514 121.141 9.44726 120.465 8.77152C119.79 8.09578 119.452 7.28489 119.452 6.33886C119.452 5.39282 119.79 4.58193 120.465 3.90619C121.141 3.23045 121.952 2.89258 122.898 2.89258C123.844 2.89258 124.655 3.23045 125.331 3.90619C126.006 4.58193 126.344 5.39282 126.344 6.33886C126.344 7.28489 126.006 8.09578 125.331 8.77152C124.655 9.44726 123.844 9.78514 122.898 9.78514Z" fill="#404040"/>
</svg>
